<?xml version="1.0" encoding="utf-8"?>
<!-- Generator: Adobe Illustrator 24.0.2, SVG Export Plug-In . SVG Version: 6.00 Build 0)  -->
<svg version="1.1" id="Capa_1" xmlns="http://www.w3.org/2000/svg" xmlns:xlink="http://www.w3.org/1999/xlink" x="0px" y="0px"
	 viewBox="0 0 500 250" style="enable-background:new 0 0 500 250;" xml:space="preserve">
<style type="text/css">
	.st0{fill:#F8B133;stroke:#F8B133;stroke-miterlimit:10;}
	.st1{fill:#1D1D1B;stroke:#FFFFFF;stroke-miterlimit:10;}
	.st2{fill:#1D1D1B;}
	.st3{fill:#FFFFFF;}
</style>
<path class="st0" d="M165.22,73.71c-4.39,2.6-4.86,9.73-5.2,15.04c-0.68,10.36,3.76,17.87,5.2,20.24
	c2.84,4.66,5.88,9.65,12.14,11.57c5.26,1.61,12.19,0.87,16.77-3.47c7.33-6.96,4.03-18.82,3.47-20.82
	C193.13,80.21,173.26,68.94,165.22,73.71z"/>
<path class="st0" d="M292.88,70.81c-5.09,0.38-8.67,6.57-11.34,11.16c-5.21,8.98-4.56,17.68-4.32,20.45
	c0.48,5.44,0.99,11.26,5.75,15.75c4,3.78,10.54,6.2,16.57,4.33c9.66-2.98,11.96-15.08,12.35-17.12
	C315.01,89.03,302.21,70.11,292.88,70.81z"/>
<path class="st1" d="M313.47,61.78c-4.63-0.38-19.15-1.07-35.57,6.94c-22.41,10.94-37.96,33.02-34.7,37.3
	c1.61,2.11,7.8-0.11,14.75-2.6c14.93-5.36,23.59-12.52,29.49-16.48c25.33-16.98,52.64-10.29,52.92-15.61
	C340.56,67.34,325.39,62.76,313.47,61.78z"/>
<path class="st1" d="M222.72,115.24c-0.42,0.6-0.34,0.58-1.16,1.95c-4.89,8.21-8.13,9.34-8.45,13.16c-0.18,2.17,0.58,5.19,2.63,6.58
	c2.41,1.63,4.97-0.06,14.96-3.47c9.01-3.08,11.59-3.3,12.32-5.61c0.61-1.92-0.85-2.8-3.89-9.65c-2.97-6.71-2.63-8.23-4.45-9.03
	C231.21,107.64,225.55,111.25,222.72,115.24z"/>
<path class="st1" d="M152.03,61.78c4.43-0.38,18.35-1.07,34.08,6.94c21.47,10.94,36.37,33.02,33.25,37.3
	c-1.54,2.11-7.48-0.11-14.13-2.6c-14.31-5.36-22.6-12.52-28.26-16.48c-24.27-16.98-50.44-10.29-50.71-15.61
	C126.06,67.34,140.6,62.76,152.03,61.78z"/>
<path class="st1" d="M142.66,80.65c-0.61-0.05-2.93,8.43-3.47,21.69c-0.71,17.37-2.19,53.52,19.95,73.73
	c2.65,2.42,14.78,8.26,39.04,19.95c14.04,6.77,22.13,10.3,22.55,9.54c0.79-1.43-27.61-13.95-53.78-42.51
	c-7.72-8.42-12.24-13.35-16.48-21.69C135.73,112.43,143.84,80.75,142.66,80.65z"/>
<path class="st2" d="M206.86,163.06c-3.64,4.8,1,10.07,2.3,23.7c1.62,16.91-4.22,22.45,0.3,27.48c4.32,4.81,12.92,3.36,27.76,0.87
	c12.17-2.05,18.39-3.19,21.69-8.67c3.62-6.02,2.71-15.59-1.73-18.22c-5.69-3.36-13.32,6.93-21.69,3.47
	c-4.87-2.02-7.13-7.51-8.67-11.28c-4.27-10.4-0.21-16.56-4.34-19.95C218.63,157.3,210.23,158.6,206.86,163.06z"/>
<path class="st2" d="M258.9,143.1c-5.87,5.21-8.81,7.81-9.54,8.67c-6.92,8.11-6.38,22.23-2.6,32.1c1.9,4.96,6.05,15.8,14.08,17.23
	c12.92,2.29,25.15-21.68,32.76-18.1c3.82,1.79,2.46,8.63,6.07,9.54c4.34,1.1,12.4-7.24,11.28-13.88
	c-0.83-4.91-5.93-4.51-12.14-12.14c-4.98-6.11-3.15-8.15-9.54-17.35c-3.53-5.09-5.86-8.35-10.41-10.41
	c-1.94-0.88-7.49-2.99-13.01-0.87C264.2,138.53,263.21,139.29,258.9,143.1z"/>
<path class="st3" d="M268.45,155.25c-5.76,0.46-8.29,8.33-8.67,9.54c-0.61,1.89-2.5,7.79,0.87,11.28c3.2,3.31,9.28,2.49,13.01,0
	c0.26-0.17,5.3-3.65,5.2-9.54C278.77,160.65,273.63,154.84,268.45,155.25z"/>
<path class="st2" d="M294.04,131.83c-2.33,7.26,9.63,11.32,13.01,26.02c3.68,15.98-6.93,26.51-1.33,32.3
	c4,4.13,13.71,3.23,19.54-1.07c16.41-12.13,10.81-57.79-7.81-65.06C308.77,120.63,296.18,125.17,294.04,131.83z"/>
<path class="st2" d="M287.44,92.49c1.83-2.82,5.77-5.91,8.52-4.85c5.66,2.18,5.84,21.73,0.67,23.72c-2.79,1.07-7.17-2.96-9.11-6.51
	C287.15,104.15,283.89,97.96,287.44,92.49z"/>
<path class="st2" d="M173.74,95.39c1.83-2.82,5.77-5.91,8.52-4.85c5.66,2.18,5.84,21.73,0.67,23.72c-2.79,1.07-7.17-2.96-9.11-6.51
	C173.44,107.05,170.19,100.86,173.74,95.39z"/>
<path class="st2" d="M331.77,122.28c-1.5,4.54,4.69,8.03,8.1,14.46c9.79,18.47-13.06,43.01-5.78,49.73
	c3.34,3.09,11.38,0.87,15.61-2.89c7.09-6.3,6.31-19.46,5.78-28.34c-0.52-8.74-2.18-11.21,0-14.46c4.19-6.27,14.15-2.79,17.35-8.67
	c2.41-4.44-0.2-12.02-4.05-13.3c-5.09-1.7-9.86,8.46-16.19,6.94c-4.72-1.13-4.52-7.35-9.83-8.67
	C338.51,116.02,332.97,118.66,331.77,122.28z"/>
<path class="st2" d="M173.31,50.57c6.67-11.22,24.91-13.24,31.81-14.46c32.04-5.66,93.77,15.75,93.11,17.93
	c-0.09,0.3-1.18-0.34-21.98-4.05c-25.39-4.53-37.98-7.33-50.31-8.1c-12.61-0.78-19.37-1.13-27.76,1.73
	c-11.61,3.96-18.51,8.67-18.51,8.67c-4.18,2.85-7.7,6.01-8.67,5.2C169.98,56.67,172.44,52.04,173.31,50.57z"/>
</svg>
